<svg width="20" height="20" viewBox="0 0 21 21" fill="none" xmlns="http://www.w3.org/2000/svg">
<g id="Group" opacity="1">
<path id="Vector" d="M14.7129 9.48828C14.7129 9.32252 14.7787 9.16355 14.8959 9.04634C15.0132 8.92913 15.1721 8.86328 15.3379 8.86328H16.5879C16.7537 8.86328 16.9126 8.92913 17.0298 9.04634C17.147 9.16355 17.2129 9.32252 17.2129 9.48828V10.7383C17.2129 10.904 17.147 11.063 17.0298 11.1802C16.9126 11.2974 16.7537 11.3633 16.5879 11.3633H15.3379C15.1721 11.3633 15.0132 11.2974 14.8959 11.1802C14.7787 11.063 14.7129 10.904 14.7129 10.7383V9.48828Z" fill="currentColor"/>
<path id="Vector_2" d="M5.33789 0.113281C5.50365 0.113281 5.66262 0.179129 5.77983 0.29634C5.89704 0.41355 5.96289 0.572521 5.96289 0.738281V1.36328H15.9629V0.738281C15.9629 0.572521 16.0287 0.41355 16.1459 0.29634C16.2632 0.179129 16.4221 0.113281 16.5879 0.113281C16.7537 0.113281 16.9126 0.179129 17.0298 0.29634C17.147 0.41355 17.2129 0.572521 17.2129 0.738281V1.36328H18.4629C19.1259 1.36328 19.7618 1.62667 20.2307 2.09551C20.6995 2.56436 20.9629 3.20024 20.9629 3.86328V17.6133C20.9629 18.2763 20.6995 18.9122 20.2307 19.381C19.7618 19.8499 19.1259 20.1133 18.4629 20.1133H3.46289C2.79985 20.1133 2.16396 19.8499 1.69512 19.381C1.22628 18.9122 0.962891 18.2763 0.962891 17.6133V3.86328C0.962891 3.20024 1.22628 2.56436 1.69512 2.09551C2.16396 1.62667 2.79985 1.36328 3.46289 1.36328H4.71289V0.738281C4.71289 0.572521 4.77874 0.41355 4.89595 0.29634C5.01316 0.179129 5.17213 0.113281 5.33789 0.113281ZM3.46289 2.61328C3.13137 2.61328 2.81343 2.74498 2.57901 2.9794C2.34459 3.21382 2.21289 3.53176 2.21289 3.86328V17.6133C2.21289 17.9448 2.34459 18.2627 2.57901 18.4972C2.81343 18.7316 3.13137 18.8633 3.46289 18.8633H18.4629C18.7944 18.8633 19.1124 18.7316 19.3468 18.4972C19.5812 18.2627 19.7129 17.9448 19.7129 17.6133V3.86328C19.7129 3.53176 19.5812 3.21382 19.3468 2.9794C19.1124 2.74498 18.7944 2.61328 18.4629 2.61328H3.46289Z" fill="currentColor"/>
<path id="Vector_3" d="M4.08789 5.11328C4.08789 4.94752 4.15374 4.78855 4.27095 4.67134C4.38816 4.55413 4.54713 4.48828 4.71289 4.48828H17.2129C17.3787 4.48828 17.5376 4.55413 17.6548 4.67134C17.772 4.78855 17.8379 4.94752 17.8379 5.11328V6.36328C17.8379 6.52904 17.772 6.68801 17.6548 6.80522C17.5376 6.92243 17.3787 6.98828 17.2129 6.98828H4.71289C4.54713 6.98828 4.38816 6.92243 4.27095 6.80522C4.15374 6.68801 4.08789 6.52904 4.08789 6.36328V5.11328Z" fill="currentColor"/>
</g>
</svg>
