<svg width="20" height="20" viewBox="0 0 21 21" fill="none" xmlns="http://www.w3.org/2000/svg">
<path id="Vector" d="M21.1361 8.28312C20.186 3.9878 18.7562 1.69523 16.6352 1.06901C16.1893 0.938233 15.7268 0.872898 15.2622 0.875052C14.6481 0.875052 14.1132 1.02466 13.5475 1.18324C12.8657 1.37451 12.0912 1.59176 10.962 1.59176C9.8327 1.59176 9.05777 1.37496 8.37465 1.18368C7.80845 1.02466 7.27406 0.875052 6.66172 0.875052C6.18127 0.873386 5.70292 0.938513 5.2404 1.06856C3.13059 1.6921 1.70165 3.98377 0.737682 8.28044C-0.298857 12.9041 0.211349 15.8233 2.16841 16.5006C2.43667 16.5952 2.71893 16.6439 3.00337 16.6449C4.34407 16.6449 5.41913 15.5281 6.15375 14.6139C6.98379 13.5791 7.95538 13.0542 10.962 13.0542C13.6474 13.0542 14.7587 13.4183 15.7187 14.6139C16.322 15.3655 16.8923 15.8914 17.4612 16.2225C18.2177 16.6623 18.9739 16.76 19.708 16.5078C20.8646 16.1132 21.5276 15.0699 21.679 13.4062C21.7941 12.1305 21.6167 10.4547 21.1361 8.28312ZM8.81184 8.04213H7.37843V9.47555C7.37843 9.66563 7.30292 9.84793 7.16851 9.98234C7.0341 10.1167 6.8518 10.1923 6.66172 10.1923C6.47164 10.1923 6.28934 10.1167 6.15493 9.98234C6.02052 9.84793 5.94501 9.66563 5.94501 9.47555V8.04213H4.5116C4.32151 8.04213 4.13922 7.96662 4.00481 7.83221C3.8704 7.6978 3.79489 7.5155 3.79489 7.32542C3.79489 7.13534 3.8704 6.95304 4.00481 6.81863C4.13922 6.68422 4.32151 6.60871 4.5116 6.60871H5.94501V5.1753C5.94501 4.98522 6.02052 4.80292 6.15493 4.66851C6.28934 4.5341 6.47164 4.45859 6.66172 4.45859C6.8518 4.45859 7.0341 4.5341 7.16851 4.66851C7.30292 4.80292 7.37843 4.98522 7.37843 5.1753V6.60871H8.81184C9.00193 6.60871 9.18422 6.68422 9.31863 6.81863C9.45304 6.95304 9.52855 7.13534 9.52855 7.32542C9.52855 7.5155 9.45304 7.6978 9.31863 7.83221C9.18422 7.96662 9.00193 8.04213 8.81184 8.04213ZM12.5746 8.22131C12.3974 8.22131 12.2242 8.16876 12.0768 8.07032C11.9295 7.97188 11.8147 7.83196 11.7469 7.66826C11.6791 7.50456 11.6613 7.32443 11.6959 7.15064C11.7305 6.97686 11.8158 6.81723 11.9411 6.69194C12.0664 6.56664 12.226 6.48132 12.3998 6.44675C12.5736 6.41218 12.7537 6.42993 12.9174 6.49773C13.0811 6.56554 13.221 6.68037 13.3195 6.8277C13.4179 6.97502 13.4704 7.14823 13.4704 7.32542C13.4704 7.56303 13.3761 7.7909 13.208 7.95891C13.04 8.12692 12.8122 8.22131 12.5746 8.22131ZM14.5455 10.1923C14.3682 10.1923 14.1949 10.1397 14.0475 10.0411C13.9002 9.94257 13.7853 9.80252 13.7176 9.63869C13.6499 9.47486 13.6323 9.29461 13.667 9.12077C13.7018 8.94692 13.7873 8.78729 13.9128 8.66209C14.0383 8.53689 14.1982 8.45174 14.3721 8.41743C14.546 8.38311 14.7262 8.40117 14.8899 8.46932C15.0536 8.53748 15.1933 8.65265 15.2915 8.80027C15.3897 8.9479 15.4418 9.12132 15.4414 9.29861C15.4408 9.53582 15.3461 9.76312 15.1782 9.93065C15.0103 10.0982 14.7827 10.1923 14.5455 10.1923ZM14.5455 6.25036C14.3683 6.25036 14.1951 6.19782 14.0478 6.09938C13.9005 6.00094 13.7856 5.86102 13.7178 5.69732C13.65 5.53361 13.6323 5.35348 13.6668 5.1797C13.7014 5.00591 13.7867 4.84628 13.912 4.72099C14.0373 4.5957 14.1969 4.51037 14.3707 4.47581C14.5445 4.44124 14.7246 4.45898 14.8883 4.52679C15.052 4.59459 15.192 4.70942 15.2904 4.85675C15.3889 5.00408 15.4414 5.17729 15.4414 5.35448C15.4414 5.59208 15.347 5.81995 15.179 5.98796C15.011 6.15597 14.7831 6.25036 14.5455 6.25036ZM16.5165 8.22131C16.3393 8.22131 16.1661 8.16876 16.0187 8.07032C15.8714 7.97188 15.7566 7.83196 15.6888 7.66826C15.621 7.50456 15.6032 7.32443 15.6378 7.15064C15.6724 6.97686 15.7577 6.81723 15.883 6.69194C16.0083 6.56664 16.1679 6.48132 16.3417 6.44675C16.5155 6.41218 16.6956 6.42993 16.8593 6.49773C17.023 6.56554 17.1629 6.68037 17.2614 6.8277C17.3598 6.97502 17.4123 7.14823 17.4123 7.32542C17.4123 7.56303 17.318 7.7909 17.1499 7.95891C16.9819 8.12692 16.7541 8.22131 16.5165 8.22131Z" fill="currentColor"/>
</svg>
