<svg width="20" height="20" viewBox="0 0 20 20" fill="none" xmlns="http://www.w3.org/2000/svg">
<path id="Vector" opacity="1" d="M15.6307 4.87519H13.7259C13.7259 2.20852 11.6307 0.113281 8.96401 0.113281C6.29734 0.113281 4.2021 2.20852 4.2021 4.87519H2.29734C1.24972 4.87519 0.392578 5.73233 0.392578 6.77995V18.2085C0.392578 19.2561 1.24972 20.1133 2.29734 20.1133H15.6307C16.6783 20.1133 17.5354 19.2561 17.5354 18.2085V6.77995C17.5354 5.73233 16.6783 4.87519 15.6307 4.87519ZM8.96401 2.01804C10.5831 2.01804 11.8211 3.25614 11.8211 4.87519H6.10686C6.10686 3.25614 7.34496 2.01804 8.96401 2.01804ZM15.6307 18.2085H2.29734V6.77995H15.6307V18.2085ZM8.96401 10.5895C7.34496 10.5895 6.10686 9.35138 6.10686 7.73233H4.2021C4.2021 10.399 6.29734 12.4942 8.96401 12.4942C11.6307 12.4942 13.7259 10.399 13.7259 7.73233H11.8211C11.8211 9.35138 10.5831 10.5895 8.96401 10.5895Z" fill="currentColor"/>
</svg>
